<svg width="220" height="282" viewBox="0 0 220 282" fill="none" xmlns="http://www.w3.org/2000/svg">
<g opacity="0.15">
<path d="M215.3 165.7C215.3 155.936 207.384 148.02 197.62 148.02C194.183 148.02 192.34 147.164 191.328 146.152C190.316 145.14 189.46 143.297 189.46 139.86V32.51C189.46 16.7644 176.696 4 160.95 4C145.204 4 132.44 16.7643 132.44 32.51V110.6C132.44 125.722 128.78 136.324 122.166 143.158C115.44 150.108 106.41 153.72 94.64 153.72C84.097 153.72 76.0655 150.589 70.1084 144.632C64.2296 138.753 61.02 130.147 61.02 118.2V32.51C61.02 16.7644 48.2556 4 32.51 4C16.7644 4 4 16.7644 4 32.51V249.49C4 265.236 16.7644 278 32.51 278C48.2556 278 61.02 265.236 61.02 249.49V230.581C61.02 224.334 64.6477 218.59 70.5584 214.239C76.4681 209.889 84.1927 207.32 91.22 207.32C114.923 207.32 133.508 200.152 146.327 185.395C156.319 196.586 170.574 202 188.5 202C203.301 202 215.3 190.001 215.3 175.2V165.7Z" stroke="white" stroke-width="8"/>
</g>
</svg>
